<?xml version="1.0" encoding="UTF-8"?><svg id="b" xmlns="http://www.w3.org/2000/svg" width="328.74" height="220.76" viewBox="0 0 328.74 220.76"><g id="c"><path d="M33.92,42c13.93-3.42,101.9.2,113.58-8.1,1.09-23.15,20.23-21.83,38.52-16.78,10.27,5.22,13.42,17.9,18.51,26.88,17.48,5.44,108.42-16.71,111.56,15.81,2.18,4.53-7.96,3.13-7.24,8-1.38,18.49-13.68,42.96-3.97,54.51,15.95.29,14,24.75,13.64,36.26,9.01,31.79-.19,66.01-38.07,54.06-25.34,2.34-58.35-14.61-80.64-4-5.29,3.17-12.91,2.6-18.82,1.17-12.5-10.28-30.18-12.14-40.9-23.84-6.07-5.43-17.71-.95-24.98-2.62-5.83-.5-14.89-7.7-19.08-5.44-.1,4.12,2.92,16.32,1.57,19.9-11.28.23-31.47,3.11-44.32.77-29.35,10.4-51-17.98-44.72-45.52,4.48-15.35,25.53-21.77,19.47-39.8-.98-4.63,5.89-3.39,8.58-4.57,5.25-7.62,4.49-20.43,7.19-29.75-9.64-5.81-7.38,1.92-9.47-15.23-.43-3.83-9.84,1.12-8.12-3.35,2.03-4.45,5.8-14.49,7.72-18.38Z" fill="#fff4db"/><path d="M89.89,61.41c-.68.06-1.43.63-1.49,1.5l3.06-.32c-.15-.83-.92-1.26-1.58-1.18" fill="#01b0a8"/><path d="M122.6,143.03s-.09,0-.13,0c-5.87.18-11.27,6.79-10.7,13.78.46,6.61,5.4,10.33,11.35,10.33s10.52-5.96,10.52-12.01-5.23-12.1-11.04-12.1" fill="#01b0a8"/><path d="M108.91,64.4c1.05-.07,1.81-1.19,1.73-2.27-.07-1.08-1.09-2.11-2.13-2.02-1.04.1-1.93,1.34-1.75,2.58.16,1.17,1.08,1.78,2.15,1.71" fill="#01b0a8"/><polygon points="61.73 75.95 58.98 94.05 68.61 93.09 61.73 75.95" fill="#01b0a8"/><path d="M146.69,61.78c1.05-.07,1.81-1.19,1.73-2.27-.07-1.08-1.09-2.11-2.14-2.02-1.04.1-1.93,1.34-1.75,2.58.16,1.17,1.09,1.78,2.15,1.71" fill="#01b0a8"/><path d="M127.27,58.93c-.68.06-1.42.63-1.48,1.5l3.06-.32c-.15-.82-.92-1.26-1.58-1.18" fill="#01b0a8"/><path d="M251.16,107.98c1.97,0,4.15-.68,6.26-2.3l.96-6.73c-1.31-1.17-3.43-2.57-6.17-3.13-.72-.12-1.4-.18-2.03-.18-3.64,0-5.82,1.97-6.28,5.19-.57,3.75,2.84,7.15,7.27,7.15" fill="#01b0a8"/><path d="M289.12,150.82c-1.03,0-2.11.15-3.24.47-6.23,1.93-7.96,7.39-6.56,13.09,1.06,4.33,5.16,7.31,9.87,7.31.9,0,1.82-.11,2.74-.34,2.97-.79,5.88-2.9,6.74-6.21l-2.95-11.93c-1.69-1.42-3.96-2.4-6.61-2.4" fill="#01b0a8"/><path d="M327.96,182.47l-.08-.33h0c-.12-.51-.37-1.61-.72-3.12-1.38-5.94-4.04-17.4-6.01-25.82l4.49-1.7-8.99-33.88-7.74,1.87,2.12-11.96-5.18-1.3,7.07-38.49,11.83.06-14.38-29.28-97.05-5.64h-3.38v-4.07l-7.25-.02c-.71-2.35-1.69-4.62-2.92-6.75l5.02-5.17-12.58-12.24-5.03,5.2c-2.18-1.17-4.48-2.09-6.86-2.73l-.02-7.08-17.56.03-.03,7.32c-2.34.71-4.6,1.68-6.72,2.9l-5.16-5.01-12.08,12.38,5.01,5.19c-1.22,2.26-2.17,4.66-2.82,7.15l-7.11.6.03,2.32h-5.17l-96.85,5.68-15.68,29.37,13.01-.3,1.26,16.82s4.68-.38,4.88-.4c-.43,2.62-2.63,16.08-3.18,19.41-2.2.27-8.93,1.08-8.93,1.08l2.02,15.99C7.92,129.41,0,148.88,0,164.01c0,8.96,2.7,17.86,7.6,25.04,5.83,8.54,14.41,14.15,24.83,16.24,3.58.72,7.21,1.08,10.79,1.08,3.29,0,6.5-.32,9.5-.92l.16,1.64,51.59-3.85-1.63-18.12c4.71,2.97,10.13,4.81,15.7,5.23,1.03.08,2.06.12,3.08.12,5.05,0,9.83-.96,14.07-2.81.82,1.48,1.77,2.9,2.88,4.26,4.28,5.24,11.42,8.5,20.12,9.18l.2.02h.2c.59,0,1.59-.04,2.67-.1,1.14,2.89,2.72,5.32,3.53,6.47l.07.1.07.1c5.54,7.01,12.3,10.39,21.27,10.64.33.01.66.01.98.01,7.23,0,13.48-2.27,18.09-6.58,1.27-1.19,2.4-2.52,3.39-3.99l-.29,3.53,71.82,8.27.39-4.06c4.74,3.38,10.54,5.26,16.73,5.26,2.87,0,5.74-.41,8.52-1.23,6.7-1.93,12.36-5.69,16.37-10.89,3.95-5.12,6.04-11.28,6.04-17.79,0-2.62-.09-5.44-.77-8.39M312.15,145.24h.85l.76,2.14.77-2.14h.85v2.99h-.55v-2.41l-.83,2.41h-.48l-.83-2.41v2.41h-.55v-2.99ZM309.25,145.73v-.5h2.55v.5h-.98v2.49h-.59v-2.49h-.98ZM275.82,113.51l5.02,1.03,8.86-49.48-6.61-1.14,1.31-7.52,16.42,3.35-10.43,56.86,5.28,1.18-1.5,8.52-20.01-3.36,1.67-9.44ZM233.47,99.34c1.24-7.8,7.38-12.3,14.95-12.3.82,0,1.66.05,2.51.16,4.09.41,7.1,2.15,8.71,3.75.85-5.37-2.71-9.8-8.59-9.8-2.58,0-5.61.85-8.92,2.85l-3.23-7.63c2.77-2.05,7.22-3.65,12.07-3.65,4.05,0,8.38,1.11,12.23,4,9.45,7.18,6.33,16.66,3.96,32.78l4.33.64-1.15,8.96-14.37-2.06.59-3.49c-1.88,1.26-4.17,1.83-6.58,1.83-8.29,0-17.93-6.79-16.5-16.05M193.68,75.77c.24,0,.49,0,.74.01,3.44.18,7.53,2.25,8.58,5.29,2.59-3.19,6.82-4.31,10.21-4.31.12,0,.24,0,.36,0,7.72.12,13.11,5.99,12.75,14.74,0,0-.47,9.02-1.04,20.26l4.74.25-.33,8.09-14.69-.66,1.29-26.78c.24-4.6-2.32-6.79-5.01-6.79s-5.62,2.28-5.8,6.6c0,0-.37,5.39-1.05,22.04l6.7.35-.33,6.32-17.87-.64c1.65-21.07,1.87-30.75,1.87-30.75.2-3.01-2.21-4.94-4.68-4.94-2.42,0-4.9,1.84-5.08,6.29,0,0-.1,3.73-1.22,27.34l-16.17-.93.35-8.56,5.59.1.71-29.98-5.96-.12.26-6.79,15.99.73.05,6.25c2.23-2.43,5.13-3.42,9.03-3.42M219.39,133c.19,3.82-2.7,6.89-6.51,6.89s-7.45-2.05-7.45-6.42c0-3.82,2.7-7.26,6.51-7.26s7.35,2.42,7.45,6.79M154.32,37.41h4.05v-1.21h-3.99c.19-2.41.86-4.69,1.91-6.74l3.39,2.09.64-1.03-3.44-2.12c1.35-2.23,3.17-4.14,5.32-5.6l2.3,3.33,1-.69-2.27-3.28c2.25-1.31,4.82-2.14,7.55-2.36v3.99h1.22v-4.05c.06,0,.13,0,.19,0s.13,0,.19,0v4.05h1.21v-3.99c2.41.19,4.69.86,6.74,1.91l-2.1,3.4,1.03.64,2.13-3.45c2.23,1.35,4.15,3.17,5.6,5.32l-3.33,2.3.69,1,3.28-2.27c1.31,2.25,2.14,4.82,2.36,7.55h-3.99v1.21h4.05c0,.06,0,.13,0,.19s0,.13,0,.2h-4.05v1.21h3.99c-.19,2.41-.86,4.69-1.91,6.73l-3.4-2.1-.64,1.04,3.45,2.12c-1.32,2.19-3.1,4.07-5.21,5.52l-2.16-3.13-1,.69,2.13,3.09c-2.28,1.35-4.89,2.21-7.67,2.43v-3.99h-1.21v4.05c-.06,0-.13,0-.19,0s-.13,0-.19,0v-4.05h-1.22v3.99c-2.31-.18-4.5-.8-6.49-1.78l2.1-3.4-1.03-.64-2.13,3.46c-2.33-1.36-4.33-3.23-5.85-5.46l3.33-2.3-.69-1-3.28,2.27c-1.31-2.25-2.14-4.82-2.36-7.55h3.99v-1.21h-4.05c0-.07,0-.13,0-.2s0-.13,0-.19M151.51,66.52c3.82,0,7.36,2.42,7.45,6.8.18,3.82-2.7,6.89-6.52,6.89s-7.45-2.05-7.45-6.42c0-3.82,2.7-7.27,6.52-7.27M146.2,55.88c2.04-.22,3.83,1.48,3.93,3.44.09,2.1-1.12,3.83-3.22,4.07-2.04.23-3.75-.97-4.1-3.05-.4-2.41,1.23-4.24,3.39-4.46M136.35,52.65l1.74-.11.23,2.98,2.75-.21.05,1.43-2.69.21.31,3.86c.05.8.27,1.58,1.22,1.55.7-.01.89-.44.9-.78.04-.59-.52-.58-.58,0l-1.21-.44c0-.6.35-1.35,1.49-1.48,1.06-.12,1.83.73,1.87,1.76.07,1.8-1.05,2.54-2.43,2.63-1.36.09-2.92-.76-3.08-2.95l-.28-3.73-1.18.08-.13-1.69,1.26-.1-.23-3.02ZM134.15,82.18s1.1,7.83,2.85,20.94l4.39-.89,1.24,8.85-14.67,1.97c-2.34-19.32-3.56-27.32-3.56-27.32-.37-2.94-3.1-4.66-6.12-4.66s-6.4,1.76-7.91,5.79l3.37,27.26-15.01,2.21-.93-6.63,5.14-.91-4.03-29.98-6.04,1.13-1.13-6.7,16.19-2.56.87,6.17c2.4-3.63,6.63-4.97,9.65-5.59.95-.18,1.87-.27,2.75-.27,7.43,0,12.27,6.11,12.99,11.21M127.18,57.34c1.18-.08,3.49.53,3.51,4.1l-4.89.48c.07.8.99,1.32,1.79,1.3.58-.02,1.2-.28,1.54-.67l1.03,1.15c-.63.79-1.48,1.08-2.45,1.13-1.91.08-3.78-1.17-3.8-3.82-.02-2.42,1.8-3.57,3.28-3.67M114.9,57.18l.14,1.11c.37-.51.9-.74,1.66-.81.62-.04,1.39.24,1.64.76.41-.64,1.17-.93,1.78-.98,1.38-.14,2.46.79,2.58,2.34,0,0,.11,1.61.24,3.62l.84-.06.11,1.44-2.62.19-.33-4.78c-.11-1.66-2.04-1.33-1.92.2,0,0,.05.96.28,3.93l1.2-.08.08,1.13-3.19.26c-.15-3.78-.31-5.5-.31-5.5-.06-1.06-1.83-1.16-1.71.45,0,0,.06.66.36,4.88l-2.89.18-.12-1.53.99-.1-.51-5.33-1.06.1-.1-1.21,2.85-.21ZM108.42,58.5c2.04-.22,3.83,1.48,3.93,3.44.09,2.1-1.12,3.83-3.22,4.07-2.04.23-3.75-.97-4.1-3.05-.4-2.41,1.23-4.24,3.39-4.46M100.76,59.19c.62-.04,1.27-.05,1.85.26l.41-.91,1.55.7-1.21,2.56c-.55-.71-1.52-1.07-2.32-.98-1.01.12-1.68.9-1.58,2.09.08,1.21.95,1.94,1.88,1.93.72-.03,1.63-.49,2.04-1.17l.98,1.02c-.82,1.12-1.87,1.66-2.95,1.73-1.93.14-3.68-1.47-3.84-3.32-.17-2.04,1.25-3.75,3.19-3.91M95.81,54.73l.72,10.31.96-.03.12,1.54-3.62.31-.13-1.71.91-.05-.66-8.96-1.19.1-.11-1.36,2.99-.15ZM89.8,59.82c1.18-.08,3.49.53,3.51,4.1l-4.89.48c.07.79.99,1.32,1.79,1.3.58-.02,1.2-.28,1.54-.67l1.03,1.15c-.63.79-1.48,1.08-2.44,1.13-1.91.08-3.78-1.17-3.81-3.82-.03-2.42,1.8-3.57,3.28-3.67M76.85,56.58l2.35,7.98.78-4.89,1.89-.14,1.43,4.41,1-6.03-1.38.07-.13-1.73,4.34-.26.16,1.38-1.01.08-1.58,9.59-1.99.2-1.62-4.29-.79,4.92-3.54.17-.13-1.24,1.28-.07-2.52-8.4-.9.06-.07-1.61,2.46-.2ZM44.19,69.14l-.7-8.72,22.89-2.18,20.47,52.45,5.49-.31,1.06,8.59-26.63,3.17-1.23-9.42,9.84-.8-3.93-10.39-14.19,1.29-3.45,21.63-12.87,1.36-1.22-9.33,5.36-.67,7.76-47.25-8.64.6ZM39.6,181.41c1.54.31,3.12.48,4.71.48,3.98,0,8.03-1.04,11.65-3.41l3.13,9.1c-3.89,3.08-8.42,4.43-14.47,4.43-2.23,0-4.67-.18-7.37-.53-10.54-1.38-24.24-11.22-22.17-31,2.26-22.06,17.94-30.81,29.56-30.81,1.01,0,1.98.07,2.92.19,4.43.63,8.43,2.04,10.63,2.93l2.25-3.94,8.87,4.77-9,14.33c-2.93-3.57-7.16-6.82-13.5-7.33-.37-.02-.74-.04-1.11-.04-9.32,0-18.12,7.98-19.55,21.11-1.4,13.66,7.89,18.69,13.47,19.73M96.67,169.38l-7.22-4.85c2.74-2.33,1.22-5.58-2.53-5.81-.15-.01-.31-.02-.47-.02-2.87,0-6.66,2.31-6.47,6.54l1.01,18.21,8.36-.36.65,6.95-23.58,1.82-.62-8.08,5.76-.38-1.87-25.72-6.06.12-.6-7.71,15.33-1.01.22,4.74c1.97-2.65,5.27-3.61,8.52-3.82.18-.01.37-.02.57-.02,3.52,0,10.62,1.84,12.23,8.88,1.18,5.24-1.21,8.57-3.23,10.48M123.78,176.17c-.41.02-.81.03-1.21.03-10.88,0-19.4-7.24-20.57-18.55-1.3-13.59,8.47-23.18,20.57-23.64.26-.01.51-.02.76-.02,11.1,0,20.08,9.94,19.9,20.68-.28,11.73-7.63,20.94-19.46,21.5M143.23,115.39l6.42-.28.28-21.59-8.01-.38-.1-8.75,17.59-.47.09,30.81,5.3.18v8.84h-21.32l-.28-8.38ZM172.88,175.7c-.28,6.14-3.44,11.08-12.01,11.17-.07,0-.13,0-.2,0-8.39,0-15.97-6.04-12.18-16.38l7.91,2.98c-1.36,3.67.96,5.68,3.29,5.68,1.81,0,3.62-1.22,3.7-3.82.09-5.96-15.83-8.19-16.67-19.36-.79-9.58,6.25-13.98,12.62-13.98,2.66,0,5.21.77,7.02,2.25v-3.91l7.54-.28.56,15.64-7.45.37c-.09-3.73-2.05-5.49-5.12-5.58-2.79,0-5.86,1.49-5.78,5.03.28,6.7,17.32,8.66,16.76,20.2M200.67,192.89c-.28,6.14-3.44,11.08-12.01,11.17-.07,0-.13,0-.2,0-8.39,0-15.97-6.04-12.18-16.38l7.91,2.98c-1.36,3.67.96,5.68,3.29,5.68,1.81,0,3.61-1.22,3.69-3.82.1-5.96-15.83-8.19-16.66-19.36-.79-9.58,6.24-13.98,12.61-13.98,2.67,0,5.21.77,7.03,2.25v-3.91l7.54-.28.56,15.63-7.45.38c-.1-3.72-2.05-5.49-5.12-5.59-2.8,0-5.87,1.49-5.77,5.03.27,6.7,17.31,8.66,16.75,20.2M203.94,183.46l-.28-8.38,6.42-.28.28-21.6-8-.37-.09-8.75,17.59-.46.1,30.81,5.31.19v8.84h-21.32ZM268.85,203.78l-14.72-1.55c2.29-19.32,2.99-27.39,2.99-27.39.41-3.56-2.97-6.21-6.76-6.21-2.52,0-5.22,1.16-7.14,3.99l-3.17,27.28-15.11-1.4.66-6.67,5.21.33,3.17-30.09-6.14-.33.48-6.78,16.33,1.33-.62,6.21c2.85-2.64,6.67-3.17,9.65-3.17.36,0,.71,0,1.04.02,9.12.44,13.27,8.61,12.7,14.35,0,0-.78,7.87-2.18,21.02l4.48.16-.88,8.89ZM302.82,206.03c-1.32.39-2.75.58-4.19.58-5.46,0-11.18-2.81-12.94-8.59-1.86-5.96-.03-12.51,6.41-14.4.89-.28,1.8-.42,2.68-.42,3.17,0,6.18,1.73,8.23,4.95l-5.72,4.97c-.51-.36-.95-.51-1.32-.51-.98,0-1.41,1.12-1.1,2.3.22.85,1.03,1.96,3.07,1.96.77,0,1.72-.16,2.88-.54,3.08-1.11,5.18-4.83,4.06-9.44l-2.9-11.75c-2.44,3.15-4.6,4.48-10.13,5.75-1.33.3-2.68.45-4.01.45-8.64,0-16.79-6.09-18.96-15.28-2.53-10.69,3.13-20.66,13.07-23.08,1.91-.46,3.76-.69,5.54-.69,2.19,0,4.27.35,6.21,1.06l-1.09-5.59,14.74-3.59,2.21,8.37-4.2,1.59,9.5,40.43c2.82,12.16-3.55,19.03-12.05,21.47" fill="#01b0a8"/><path d="M173.4,35l-1.18-9.41-1.29,9.44c-.95.47-1.61,1.44-1.61,2.58,0,.24.03.47.09.69l-.68.49c.09-.65-.07-1.38-.92-1.91-1.54-.95-2.89.32-3.44,2.86-.4,1.87-1.5,3.6-2.81,4.38l.19-.11-.19.11c1.32-.78,3.51-.97,5.34-.43,1.87.55,4.26.17,4.15-1.66-.06-1.02-.66-1.51-1.29-1.73l.67-.41c.49.38,1.1.61,1.76.61,1.58,0,2.87-1.29,2.87-2.87,0-1.15-.68-2.14-1.66-2.6M172.19,39.26c-.92,0-1.66-.74-1.66-1.66s.74-1.66,1.66-1.66,1.66.74,1.66,1.66-.74,1.66-1.66,1.66" fill="#01b0a8"/></g></svg>